<?xml version="1.0" encoding="UTF-8" standalone="no"?>
<!-- Created with Inkscape (http://www.inkscape.org/) -->

<svg
   xmlns:dc="http://purl.org/dc/elements/1.1/"
   xmlns:cc="http://creativecommons.org/ns#"
   xmlns:rdf="http://www.w3.org/1999/02/22-rdf-syntax-ns#"
   xmlns:svg="http://www.w3.org/2000/svg"
   xmlns="http://www.w3.org/2000/svg"
   xmlns:sodipodi="http://sodipodi.sourceforge.net/DTD/sodipodi-0.dtd"
   xmlns:inkscape="http://www.inkscape.org/namespaces/inkscape"
   width="171.46594mm"
   height="171.47742mm"
   viewBox="0 0 171.46594 171.47741"
   version="1.1"
   id="svg8"
   inkscape:version="0.92.2 (5c3e80d, 2017-08-06)"
   sodipodi:docname="otrenav.svg">
  <defs
     id="defs2" />
  <sodipodi:namedview
     id="base"
     pagecolor="#ffffff"
     bordercolor="#666666"
     borderopacity="1.0"
     inkscape:pageopacity="0.0"
     inkscape:pageshadow="2"
     inkscape:zoom="0.49497475"
     inkscape:cx="-26.667727"
     inkscape:cy="265.96624"
     inkscape:document-units="mm"
     inkscape:current-layer="g4636"
     showgrid="false"
     inkscape:window-width="1529"
     inkscape:window-height="1008"
     inkscape:window-x="461"
     inkscape:window-y="310"
     inkscape:window-maximized="0"
     scale-x="1"
     fit-margin-top="0"
     fit-margin-left="0"
     fit-margin-right="0"
     fit-margin-bottom="0" />
  <metadata
     id="metadata5">
    <rdf:RDF>
      <cc:Work
         rdf:about="">
        <dc:format>image/svg+xml</dc:format>
        <dc:type
           rdf:resource="http://purl.org/dc/dcmitype/StillImage" />
        <dc:title></dc:title>
      </cc:Work>
    </rdf:RDF>
  </metadata>
  <g
     inkscape:label="Layer 1"
     inkscape:groupmode="layer"
     id="layer1"
     transform="translate(-15.42665,-68.432041)">
    <g
       id="g4636"
       transform="translate(197.76214,12.35464)">
      <path
         style="fill:#000000;fill-opacity:1;stroke-width:0.26458332"
         d="m -181.93136,131.63009 c 1.37855,-10.43314 4.59321,-20.83794 9.00946,-29.16068 4.50322,-8.486648 9.10222,-14.688318 15.95949,-21.521098 8.0009,-7.97233 17.00192,-14.05968 26.90855,-18.19813 7.73465,-3.23111 15.16966,-5.21561 23.4689,-6.26414 4.71184,-0.5953 15.883832,-0.5286 20.851042,0.1245 13.16551,1.731 26.49035,6.75176 36.83481,13.87922 1.284436,0.88499 2.599418,1.78767 2.92218,2.00595 0.322763,0.21828 1.772171,1.36406 3.220911,2.54618 8.446668,6.89215 15.565822,15.25462 20.807433,24.44132 2.244187,3.933268 2.535727,4.521078 4.27146,8.612148 3.244098,7.64623 5.33573,15.39384 6.378113,23.62514 0.617475,4.87597 0.559178,15.91739 -0.110955,21.0148 -1.268895,9.65195 -4.635414,20.35677 -9.011733,28.65541 -13.314263,25.24729 -38.012269,42.3347 -66.126719,45.75003 -4.93636,0.59966 -15.951792,0.53749 -20.938642,-0.11818 -18.89907,-2.48487 -35.76365,-10.76256 -49.34378,-24.21956 -8.88019,-8.79967 -15.02211,-17.95195 -19.3921,-28.89678 -3.63248,-9.09774 -6.11255,-20.18356 -6.11255,-27.3229 0,-1.75724 0.0728,-2.10691 0.46303,-2.22273 0.25466,-0.0756 9.90762,-0.13425 21.45101,-0.13035 20.35866,0.007 21.00328,0.0224 21.4974,0.51649 0.29313,0.29313 0.50985,0.87448 0.51046,1.36929 0.002,1.85437 0.8641,6.03581 1.85614,9.00589 3.61681,10.8284 11.16741,19.4811 21.29384,24.40195 6.52801,3.17222 11.25972,4.23442 18.785412,4.21703 3.75209,-0.009 5.41369,-0.13382 7.83178,-0.5899 10.79467,-2.03596 20.77666,-8.54434 26.83352,-17.49577 l 1.18138,-1.74597 -3.09303,-0.075 -3.09303,-0.075 -0.64558,0.86875 c -1.18708,1.59744 -6.10299,6.26087 -8.04514,7.63193 -3.44532,2.43224 -7.42208,4.24413 -12.24262,5.57801 -3.14258,0.86957 -3.22206,0.87738 -8.85957,0.87037 -5.541232,-0.007 -5.768392,-0.0287 -8.772202,-0.84068 -7.22205,-1.95231 -12.83595,-5.21621 -17.68869,-10.28412 -5.03806,-5.26145 -7.78458,-10.17064 -9.7053,-17.34742 -0.69592,-2.60034 -0.73027,-3.00952 -0.71802,-8.55185 l 0.0129,-5.82083 0.98362,-3.43805 c 1.13334,-3.96133 2.96527,-7.97089 5.12796,-11.22362 1.71149,-2.5741 6.40887,-7.43597 9.19621,-9.51824 2.1194,-1.58329 7.96823,-4.52666 10.31875,-5.19282 5.79339,-1.64191 5.21536,-1.56156 11.244802,-1.56307 5.59476,-0.001 5.73959,0.0126 8.78505,0.85202 5.50387,1.51696 9.27542,3.30775 13.21488,6.27465 2.0477,1.54218 5.98652,5.3668 7.2943,7.08282 l 0.56105,0.73618 3.08253,-0.0747 3.08253,-0.0747 -1.74048,-2.43212 c -4.23614,-5.91953 -9.63882,-10.40678 -16.30038,-13.53847 -5.98463,-2.81345 -10.88665,-3.868058 -17.97948,-3.868058 -7.530392,0 -12.250532,1.089478 -18.917712,4.366478 -9.99485,4.9126 -17.44639,13.51002 -21.02615,24.25951 -0.97146,2.91715 -1.86031,7.25037 -1.86031,9.06918 0,0.44383 -0.23434,1.03095 -0.52917,1.32577 -0.52028,0.52028 -0.88194,0.52917 -21.5419,0.52917 -11.557,0 -21.20106,-0.0723 -21.43125,-0.1606 -0.52849,-0.2028 -0.53508,-3.70393 -0.0144,-7.64461 z m 25.22377,-11.77396 h 2.60915 l 0.85606,-2.05052 c 5.39234,-12.91642 16.77548,-24.926118 29.5121,-31.136578 5.79579,-2.82606 10.76783,-4.4263 17.4625,-5.62027 3.50851,-0.62573 4.62843,-0.70668 9.657292,-0.69801 4.95598,0.009 6.19963,0.1003 9.65729,0.71247 15.93899,2.82194 28.69328,10.40619 38.810616,23.078448 6.455849,8.08614 10.754593,18.02478 12.396385,28.66029 0.680129,4.40588 0.68195,5.99836 0.0073,6.35944 -0.803951,0.43026 -42.383881,0.37523 -42.939411,-0.0568 -0.23389,-0.1819 -0.6152,-1.08983 -0.84736,-2.01762 -0.81194,-3.24471 -3.14285,-6.9236 -5.64101,-8.90322 -3.26572,-2.58787 -7.52707,-4.09426 -11.58205,-4.09426 -5.514222,0 -11.293122,2.93795 -14.200672,7.21951 -4.64077,6.83383 -4.47013,14.96305 0.45514,21.68192 1.98485,2.70767 6.58888,5.47067 10.26906,6.16275 3.669042,0.68998 7.551442,0.33706 10.465452,-0.95135 1.92321,-0.85034 4.83354,-2.761 5.8882,-3.86566 1.85749,-1.94557 3.72219,-5.29605 4.35449,-7.82412 0.22743,-0.90929 0.60486,-1.80209 0.83875,-1.98399 0.55553,-0.43206 42.13546,-0.4871 42.939411,-0.0568 0.648453,0.34705 0.674829,1.84777 0.101541,5.77757 -2.228145,15.27362 -9.788368,28.6922 -21.947062,38.95364 -5.60061,4.7267 -13.58681,9.16727 -19.84375,11.03373 -1.01864,0.30387 -2.66705,0.79687 -3.66312,1.09556 -0.99607,0.29868 -3.61544,0.86133 -5.82083,1.25033 -3.47446,0.61284 -4.7516,0.70873 -9.56605,0.71824 -4.598452,0.009 -6.171972,-0.093 -9.128122,-0.59216 -11.42316,-1.92887 -21.09111,-6.20116 -29.54717,-13.05698 -2.12216,-1.72055 -7.16302,-6.63658 -8.35602,-8.14908 -2.48725,-3.15338 -3.13467,-4.00963 -4.20001,-5.55474 -1.78612,-2.5905 -3.75659,-6.15179 -5.16041,-9.32656 l -1.25768,-2.84427 h -2.59456 c -1.42701,0 -2.59457,0.092 -2.59457,0.20447 0,0.52271 1.70009,4.52618 3.15213,7.42282 3.59189,7.16536 6.7715,11.55496 12.59058,17.3819 5.82976,5.83763 10.27851,9.03988 17.72709,12.76009 5.90734,2.95045 12.89341,5.08963 19.81321,6.06694 4.37376,0.61773 14.422582,0.62674 18.710932,0.0168 6.96035,-0.99002 13.08501,-2.80646 18.89044,-5.60248 7.89853,-3.80411 12.64321,-7.12389 18.366128,-12.85052 2.254115,-2.25557 4.288697,-4.33916 4.5213,-4.63021 3.619484,-4.52887 6.184916,-8.55053 8.6077,-13.49375 4.947552,-10.09451 7.073463,-20.15679 6.652084,-31.48541 -0.273944,-7.3649 -1.542917,-14.27765 -3.739854,-20.37292 -2.091533,-5.80283 -6.184361,-13.1849 -10.41517,-18.78542 -0.659585,-0.873118 -3.118027,-3.492498 -5.463201,-5.820828 -5.825457,-5.78362 -10.694317,-9.21982 -18.132117,-12.79676 -6.13221,-2.94906 -12.87748,-4.95185 -19.84375,-5.89197 -3.31904,-0.44791 -13.657432,-0.45649 -17.197912,-0.0143 -6.8989,0.8617 -13.75048,2.86774 -19.98023,5.84991 -7.51748,3.59861 -12.36828,7.0125 -18.26293,12.85309 -4.51013,4.46876 -5.66835,5.862578 -8.78549,10.572648 -2.71774,4.10656 -7.08885,12.84025 -7.18917,14.36433 -0.016,0.2437 0.66484,0.33073 2.58738,0.33073 z"
         id="path4650"
         inkscape:connector-curvature="0" />
    </g>
  </g>
</svg>
